<svg xmlns="http://www.w3.org/2000/svg" width="512" height="512" viewBox="0 0 512 512"><defs><radialGradient id="appbg" cx="38%" cy="32%" r="70%"><stop offset="0%" stop-color="#1e1560"/><stop offset="55%" stop-color="#0d0a2a"/><stop offset="100%" stop-color="#04040e"/></radialGradient><radialGradient id="cardface" cx="32%" cy="28%" r="72%"><stop offset="0%" stop-color="#2a2060"/><stop offset="60%" stop-color="#131030"/><stop offset="100%" stop-color="#08060f"/></radialGradient><radialGradient id="bp" cx="32%" cy="28%" r="68%"><stop offset="0%" stop-color="#a78bfa"/><stop offset="45%" stop-color="#5b21b6"/><stop offset="100%" stop-color="#2e1065"/></radialGradient><radialGradient id="bg" cx="32%" cy="28%" r="68%"><stop offset="0%" stop-color="#fef08a"/><stop offset="45%" stop-color="#d4a017"/><stop offset="100%" stop-color="#7c4f00"/></radialGradient><radialGradient id="br" cx="32%" cy="28%" r="68%"><stop offset="0%" stop-color="#fda4af"/><stop offset="45%" stop-color="#dc2626"/><stop offset="100%" stop-color="#7f1d1d"/></radialGradient><radialGradient id="bgr" cx="32%" cy="28%" r="68%"><stop offset="0%" stop-color="#86efac"/><stop offset="45%" stop-color="#16a34a"/><stop offset="100%" stop-color="#052e16"/></radialGradient><radialGradient id="badge3d" cx="28%" cy="22%" r="72%"><stop offset="0%" stop-color="#fff4c2"/><stop offset="40%" stop-color="#e8b800"/><stop offset="100%" stop-color="#7a4f00"/></radialGradient><radialGradient id="shine" cx="30%" cy="25%" r="55%"><stop offset="0%" stop-color="#fff" stop-opacity=".4"/><stop offset="100%" stop-color="#fff" stop-opacity="0"/></radialGradient><linearGradient id="bord" x1="0%" x2="100%" y1="0%" y2="100%"><stop offset="0%" stop-color="#fff4c2"/><stop offset="40%" stop-color="#d4a017"/><stop offset="100%" stop-color="#7a4f00"/></linearGradient></defs><rect width="512" height="512" fill="url(#appbg)" rx="120"/><rect width="504" height="504" x="4" y="4" fill="none" stroke="url(#bord)" stroke-width="6" rx="116"/><rect width="368" height="328" x="72" y="54" fill="#04030a" opacity=".8" rx="50"/><rect width="368" height="328" x="68" y="50" fill="url(#cardface)" stroke="url(#bord)" stroke-width="3" rx="50"/><rect width="368" height="36" x="68" y="50" fill="#fff" opacity=".07" rx="36"/><circle cx="174" cy="176" r="64" opacity=".45"/><circle cx="170" cy="172" r="64" fill="url(#bp)"/><ellipse cx="148" cy="144" fill="url(#shine)" rx="20" ry="14" transform="rotate(-25 148 144)"/><text x="170" y="192" fill="#fff" font-family="Arial Black,sans-serif" font-size="44" font-weight="900" text-anchor="middle">42</text><circle cx="342" cy="176" r="64" opacity=".45"/><circle cx="338" cy="172" r="64" fill="url(#bg)"/><ellipse cx="316" cy="144" fill="url(#shine)" rx="20" ry="14" transform="rotate(-25 316 144)"/><text x="338" y="192" fill="#3a1f00" font-family="Arial Black,sans-serif" font-size="44" font-weight="900" text-anchor="middle">07</text><circle cx="174" cy="316" r="64" opacity=".45"/><circle cx="170" cy="312" r="64" fill="url(#br)"/><ellipse cx="148" cy="284" fill="url(#shine)" rx="20" ry="14" transform="rotate(-25 148 284)"/><text x="170" y="332" fill="#fff" font-family="Arial Black,sans-serif" font-size="44" font-weight="900" text-anchor="middle">31</text><circle cx="342" cy="316" r="64" opacity=".45"/><circle cx="338" cy="312" r="64" fill="url(#bgr)"/><ellipse cx="316" cy="284" fill="url(#shine)" rx="20" ry="14" transform="rotate(-25 316 284)"/><text x="338" y="332" fill="#001a06" font-family="Arial Black,sans-serif" font-size="44" font-weight="900" text-anchor="middle">88</text><rect width="440" height="62" x="36" y="414" fill="#7a4f00" opacity=".9" rx="31"/><rect width="452" height="66" x="30" y="406" fill="url(#badge3d)" rx="33"/><rect width="452" height="30" x="30" y="406" fill="#fff" opacity=".2" rx="30"/><text x="256" y="450" fill="#1a0a00" font-family="Arial Black,sans-serif" font-size="36" font-weight="900" letter-spacing="4" text-anchor="middle">QUINIELA IA</text></svg>