<svg xmlns="http://www.w3.org/2000/svg" width="512" height="512" viewBox="0 0 400 400"><defs><linearGradient id="gold" x1="0%" x2="100%" y1="0%" y2="100%"><stop offset="0%" stop-color="#fff4c2"/><stop offset="40%" stop-color="#f0cc6e"/><stop offset="100%" stop-color="#c9a84c"/></linearGradient><linearGradient id="red" x1="0%" x2="100%" y1="0%" y2="100%"><stop offset="0%" stop-color="#ff6b81"/><stop offset="100%" stop-color="#ff2d55"/></linearGradient><linearGradient id="cyan" x1="0%" x2="100%" y1="0%" y2="100%"><stop offset="0%" stop-color="#25f4ee"/><stop offset="100%" stop-color="#20d5ec"/></linearGradient><linearGradient id="ball1" x1="20%" x2="80%" y1="10%" y2="90%"><stop offset="0%" stop-color="#a78bfa"/><stop offset="100%" stop-color="#5b21b6"/></linearGradient><linearGradient id="ball2" x1="20%" x2="80%" y1="10%" y2="90%"><stop offset="0%" stop-color="#fef08a"/><stop offset="100%" stop-color="#d4a017"/></linearGradient><linearGradient id="ball3" x1="20%" x2="80%" y1="10%" y2="90%"><stop offset="0%" stop-color="#fda4af"/><stop offset="100%" stop-color="#dc2626"/></linearGradient><linearGradient id="ball4" x1="20%" x2="80%" y1="10%" y2="90%"><stop offset="0%" stop-color="#86efac"/><stop offset="100%" stop-color="#16a34a"/></linearGradient><radialGradient id="bg" cx="50%" cy="40%" r="60%"><stop offset="0%" stop-color="#1a0a2e"/><stop offset="100%" stop-color="#06080f"/></radialGradient><radialGradient id="shine" cx="30%" cy="25%" r="55%"><stop offset="0%" stop-color="#fff" stop-opacity=".4"/><stop offset="100%" stop-color="#fff" stop-opacity="0"/></radialGradient></defs><circle cx="200" cy="200" r="190" fill="url(#bg)"/><circle cx="200" cy="200" r="190" fill="none" stroke="url(#gold)" stroke-width="3" opacity=".6"/><circle cx="200" cy="200" r="180" fill="none" stroke="url(#gold)" stroke-width=".5" opacity=".2"/><circle cx="120" cy="90" r="2" fill="#f0cc6e" opacity=".7"/><circle cx="280" cy="80" r="1.5" fill="#f0cc6e" opacity=".5"/><circle cx="80" cy="280" r="1.5" fill="#20d5ec" opacity=".6"/><circle cx="320" cy="300" r="2" fill="#ff2d55" opacity=".5"/><circle cx="148" cy="148" r="44" fill="#2a1a8a" opacity=".4"/><circle cx="145" cy="145" r="44" fill="url(#ball1)"/><circle cx="145" cy="145" r="44" fill="url(#shine)"/><ellipse cx="132" cy="130" fill="#fff" opacity=".3" rx="10" ry="7" transform="rotate(-20 132 130)"/><text x="145" y="155" fill="#fff" font-family="Arial Black,sans-serif" font-size="26" font-weight="900" text-anchor="middle">42</text><circle cx="258" cy="148" r="44" fill="#7a5200" opacity=".4"/><circle cx="255" cy="145" r="44" fill="url(#ball2)"/><circle cx="255" cy="145" r="44" fill="url(#shine)"/><ellipse cx="242" cy="130" fill="#fff" opacity=".3" rx="10" ry="7" transform="rotate(-20 242 130)"/><text x="255" y="155" fill="#3a1f00" font-family="Arial Black,sans-serif" font-size="26" font-weight="900" text-anchor="middle">07</text><circle cx="148" cy="258" r="44" fill="#7f1d1d" opacity=".4"/><circle cx="145" cy="255" r="44" fill="url(#ball3)"/><circle cx="145" cy="255" r="44" fill="url(#shine)"/><ellipse cx="132" cy="240" fill="#fff" opacity=".3" rx="10" ry="7" transform="rotate(-20 132 240)"/><text x="145" y="265" fill="#fff" font-family="Arial Black,sans-serif" font-size="26" font-weight="900" text-anchor="middle">31</text><circle cx="258" cy="258" r="44" fill="#064e24" opacity=".4"/><circle cx="255" cy="255" r="44" fill="url(#ball4)"/><circle cx="255" cy="255" r="44" fill="url(#shine)"/><ellipse cx="242" cy="240" fill="#fff" opacity=".3" rx="10" ry="7" transform="rotate(-20 242 240)"/><text x="255" y="265" fill="#fff" font-family="Arial Black,sans-serif" font-size="26" font-weight="900" text-anchor="middle">88</text><circle cx="200" cy="200" r="32" fill="#06080f" opacity=".9"/><circle cx="200" cy="200" r="30" fill="url(#gold)" opacity=".15"/><circle cx="200" cy="200" r="30" fill="none" stroke="url(#gold)" stroke-width="1.5"/><text x="200" y="196" fill="url(#gold)" font-family="Arial Black,sans-serif" font-size="11" font-weight="900" text-anchor="middle">IA</text><text x="200" y="210" fill="#c9a84c" font-family="Arial,sans-serif" font-size="7" opacity=".8" text-anchor="middle">MOTOR</text><rect width="240" height="36" x="80" y="330" fill="#06080f" opacity=".8" rx="18"/><rect width="244" height="36" x="78" y="328" fill="none" stroke="url(#gold)" stroke-width="1.5" rx="18"/><text x="200" y="345" fill="url(#gold)" font-family="Arial Black,sans-serif" font-size="13" font-weight="900" letter-spacing="3" text-anchor="middle">QUINIELA</text><text x="200" y="358" fill="url(#cyan)" font-family="Arial Black,sans-serif" font-size="9" font-weight="900" letter-spacing="6" text-anchor="middle">PREDICCIONES IA</text></svg>